<?xml version="1.0" encoding="UTF-8" standalone="no"?>
<svg
   xmlns:dc="http://purl.org/dc/elements/1.1/"
   xmlns:cc="http://creativecommons.org/ns#"
   xmlns:rdf="http://www.w3.org/1999/02/22-rdf-syntax-ns#"
   xmlns:svg="http://www.w3.org/2000/svg"
   xmlns="http://www.w3.org/2000/svg"
   width="16"
   height="16"
   viewBox="0 0 4.2333332 4.2333332"
   version="1.1"
   id="svg820">
  <defs
     id="defs814" />
  <metadata
     id="metadata817">
    <rdf:RDF>
      <cc:Work
         rdf:about="">
        <dc:format>image/svg+xml</dc:format>
        <dc:type
           rdf:resource="http://purl.org/dc/dcmitype/StillImage" />
        <dc:title></dc:title>
      </cc:Work>
    </rdf:RDF>
  </metadata>
  <rect
     ry="0.13229164"
     y="1.984375"
     x="0.26458332"
     height="0.26458332"
     width="3.7041667"
     id="rect841"
     style="fill:#bfbfbf;fill-opacity:1;stroke:none;stroke-width:0.39687499;stroke-miterlimit:4;stroke-dasharray:none" />
  <path
     id="rect837-3-3"
     transform="scale(0.26458333)"
     d="M 0,0 C 0,1.6666667 0,3.3333333 0,5 H 1 V 1 H 5 V 0 C 3.3333333,0 1.6666667,0 0,0 Z"
     style="fill:#bfbfbf;fill-opacity:1;stroke:none;stroke-width:1.5;stroke-miterlimit:4;stroke-dasharray:none" />
  <path
     id="rect837-3-3-6"
     d="M 2.1000002e-7,4.2333332 C 0.44097241,4.2333331 0.88194461,4.2333331 1.3229168,4.233333 l 0,-0.2645833 -1.05833333,10e-8 -1.4e-7,-1.0583332 -0.264583300000003,0 C 9.0000002e-8,3.3513888 1.5000001e-7,3.792361 2.1000002e-7,4.2333332 Z"
     style="fill:#bfbfbf;fill-opacity:1;stroke:none;stroke-width:0.39687499;stroke-miterlimit:4;stroke-dasharray:none" />
  <path
     id="rect837-3-3-9"
     d="m 4.2333333,4.2333332 c 0,-0.4409722 0,-0.8819444 0,-1.3229166 l -0.2645833,0 0,1.0583333 -1.0583333,0 0,0.2645833 c 0.4409722,0 0.8819444,0 1.3229166,0 z"
     style="fill:#bfbfbf;fill-opacity:1;stroke:none;stroke-width:0.39687499;stroke-miterlimit:4;stroke-dasharray:none" />
  <path
     id="rect837-3-3-6-1"
     d="m 4.2333331,-1.375e-8 c -0.4409722,-4.166667e-9 -0.8819444,-8.333334e-9 -1.3229166,2.875e-7 l 0,0.26458329625 1.0583333,-2.9e-7 2e-7,1.05833332 0.2645833,0 c -1e-7,-0.44097231 -2e-7,-0.88194431 -2e-7,-1.32291661375 z"
     style="fill:#bfbfbf;fill-opacity:1;stroke:none;stroke-width:0.39687499;stroke-miterlimit:4;stroke-dasharray:none" />
</svg>
